<svg id="Layer_1" data-name="Layer 1" xmlns="http://www.w3.org/2000/svg" xmlns:xlink="http://www.w3.org/1999/xlink" viewBox="0 0 295.63201 271.46488">
  <defs>
    <linearGradient id="linear-gradient" x1="20.04663" y1="256.86302" x2="217.32663" y2="7.02302" gradientUnits="userSpaceOnUse">
      <stop offset="0" stop-color="#aa62a6"/>
      <stop offset="0.55339" stop-color="#c55597"/>
      <stop offset="1" stop-color="#d64c8d"/>
    </linearGradient>
    <linearGradient id="linear-gradient-2" x1="57.80188" y1="94.82929" x2="217.64188" y2="16.34929" gradientUnits="userSpaceOnUse">
      <stop offset="0" stop-color="#ed417c"/>
      <stop offset="0.22496" stop-color="#e74480"/>
      <stop offset="1" stop-color="#d64c8d"/>
    </linearGradient>
    <linearGradient id="linear-gradient-3" x1="41.46774" y1="93.07899" x2="181.14774" y2="242.11899" gradientUnits="userSpaceOnUse">
      <stop offset="0" stop-color="#ed417c"/>
      <stop offset="0.02053" stop-color="#ed427a"/>
      <stop offset="0.67096" stop-color="#f16b4e"/>
      <stop offset="1" stop-color="#f37b3d"/>
    </linearGradient>
    <linearGradient id="linear-gradient-4" x1="15.91011" y1="136.91478" x2="191.59011" y2="243.47478" gradientUnits="userSpaceOnUse">
      <stop offset="0" stop-color="#39bfef"/>
      <stop offset="0.24745" stop-color="#6eacbd"/>
      <stop offset="0.60872" stop-color="#b59278"/>
      <stop offset="0.86897" stop-color="#e2814d"/>
      <stop offset="1" stop-color="#f37b3d"/>
    </linearGradient>
  </defs>
  <title>partner</title>
  <g>
    <g>
      <path d="M231.92048,24.51887a14.5421,14.5421,0,1,0-21.1812-19.931l-.02-.01749L5.51837,239.38456A18.83242,18.83242,0,1,0,33.3622,264.69881l.004-.0007Z" fill="url(#linear-gradient)"/>
      <path d="M235.87377,14.023A14.53871,14.53871,0,0,0,214.54346,1.689c-.061.01775-.09352.02909-.09352.02909L43.4971,85.81031a11.91247,11.91247,0,1,0,10.33523,21.45313l.02663-.00141L226.66634,28.063A14.53843,14.53843,0,0,0,235.87377,14.023Z" fill="url(#linear-gradient-2)"/>
      <path d="M186.33864,213.645,57.03167,89.16695a11.92477,11.92477,0,0,0-17.8991,15.74244c.00984.05027.01582.07787.01582.07787l112.5479,139.57655A23.306,23.306,0,1,0,186.33864,213.645Z" fill="url(#linear-gradient-3)"/>
      <g>
        <path d="M180.7147,209.73416c7.63378,3.786-.07-.0356,0,0Z" fill="#39bfef"/>
        <path d="M193.63734,229.25872c.13988-7.445-3.61318-14.90748-12.92265-19.52455-11.039-5.61656-22.15824-11.0809-33.235-16.62275q-16.43988-8.22511-32.87729-16.45515-16.46631-8.245-32.92919-16.49689-16.63361-8.3377-33.2579-16.69377c-10.81336-5.43489-35.59447-17.91519-35.59447-17.91519a9.15455,9.15455,0,0,0-8.80708,15.9627c.06267.04491.12542.08965.18923.133.03542.0254.07128.0501.10688.07506,0,0,2.74922,1.86425,4.23817,2.97958,2.52677,1.89272,5.176,3.64157,7.75731,5.45941q7.459,5.25261,14.913,10.51233,15.33516,10.81938,30.657,21.65757,15.03694,10.63455,30.06606,21.2799,15.178,10.747,30.35153,21.50016c10.12808,7.177,20.12783,14.59063,30.405,21.55157,1.2415.84085,2.40666,1.86882,3.701,2.62415.26565.155.53082.30322.79572.44815l-.04641.07611a23.30152,23.30152,0,0,0,36.53152-19.33937C193.6772,230.06379,193.66059,229.66038,193.63734,229.25872Z" fill="url(#linear-gradient-4)"/>
      </g>
    </g>
    <g>
      <rect x="51.84766" y="101.28295" width="102.04725" height="102.04726"/>
      <rect x="60.64986" y="184.19634" width="38.26771" height="6.37796" fill="#fff"/>
      <g>
        <path d="M60.21966,128.15278l2.97-2.80379a3.36694,3.36694,0,0,0,2.61369,1.5444c1.14048,0,1.87717-.78406,1.87717-2.32848v-10.526H72.2663v10.54978a6.17917,6.17917,0,0,1-1.63951,4.68086,6.267,6.267,0,0,1-4.562,1.687A6.79234,6.79234,0,0,1,60.21966,128.15278Z" fill="#fff"/>
        <path d="M73.335,114.03887H86.71218v3.8968H77.89709v2.54241h7.98347v3.63533H77.89709v2.63743H86.831v3.92053H73.335Z" fill="#fff"/>
        <path d="M92.73819,118.07823h-4.966v-4.03936h14.56524v4.03936H97.3477v12.59314H92.73819Z" fill="#fff"/>
        <path d="M60.64734,134.55887h8.53a6.229,6.229,0,0,1,4.53832,1.47323,3.743,3.743,0,0,1,1.06927,2.70869v.04756a3.84969,3.84969,0,0,1-2.56622,3.7066c2.01973.66533,3.30275,1.80581,3.30275,4.0631v.04756c0,2.85125-2.32857,4.58577-6.29649,4.58577H60.64734Zm9.59924,5.13238c0-.92673-.73652-1.42567-2.09092-1.42567H65.138v2.92253h2.89881c1.40186,0,2.20975-.47522,2.20975-1.44941Zm-1.59187,4.72833H65.138v3.06509h3.56414c1.42558,0,2.20975-.5465,2.20975-1.52068v-.04747C70.91191,145.01363,70.19911,144.41958,68.65471,144.41958Z" fill="#fff"/>
        <path d="M76.21013,134.55887h7.86479c2.54232,0,4.30067.66533,5.41741,1.78207a5.19321,5.19321,0,0,1,1.473,3.873v.04754a5.26947,5.26947,0,0,1-3.4214,5.13229l3.9679,5.79762H86.21331l-3.35021-5.03726H80.81965v5.03726H76.21013Zm7.67461,7.98363c1.54442,0,2.47113-.76034,2.47113-1.97217v-.04747c0-1.33067-.97418-1.99591-2.49487-1.99591H80.81965v4.01555Z" fill="#fff"/>
        <path d="M96.35853,134.44012h4.44323l7.08082,16.75125H102.9403l-1.18809-2.99381h-6.439L94.125,151.19137H89.30161Zm4.03927,10.16957-1.85326-4.70461-1.87717,4.70461Z" fill="#fff"/>
        <path d="M108.42837,134.55887h4.60951v16.6325h-4.60951Z" fill="#fff"/>
        <path d="M114.17818,134.55887h4.30065l6.843,8.79152v-8.79152h4.56207v16.6325h-4.01555l-7.12811-9.12409v9.12409h-4.562Z" fill="#fff"/>
        <path d="M130.17284,148.72024l2.56606-3.06509a8.61665,8.61665,0,0,0,5.39367,1.99591c1.2593,0,1.92463-.42768,1.92463-1.14057V146.463c0-.71289-.5465-1.06929-2.82744-1.61579-3.5404-.8078-6.27293-1.8058-6.27293-5.20357v-.04754c0-3.08884,2.44741-5.3224,6.43921-5.3224a10.46826,10.46826,0,0,1,6.843,2.20975l-2.30467,3.25519a8.16478,8.16478,0,0,0-4.65714-1.63942c-1.11674,0-1.66325.4514-1.66325,1.0692v.04754c0,.76036.57024,1.093,2.89881,1.6157,3.80164.83162,6.17783,2.06719,6.17783,5.17984v.04754c0,3.39777-2.68506,5.41741-6.72433,5.41741A11.66153,11.66153,0,0,1,130.17284,148.72024Z" fill="#fff"/>
      </g>
    </g>
  </g>
  <g>
    <path d="M184.03337,103.51427h-5.66406v-1.75293H191.5949v1.75293h-5.665V118.5631h-1.89648Z" fill="#231f20"/>
    <path d="M193.8488,101.76134h7.22461a6.6207,6.6207,0,0,1,4.77637,1.68066,4.63867,4.63867,0,0,1,1.29688,3.3125v.04785c0,2.78418-1.9209,4.416-4.56055,4.89648l5.16016,6.86426h-2.32812l-4.87207-6.52832h-4.80078v6.52832H193.8488Zm7.05664,8.56934c2.52051,0,4.32031-1.29687,4.32031-3.457v-.04785c0-2.06348-1.584-3.31152-4.2959-3.31152h-5.18457v6.81641Z" fill="#231f20"/>
    <path d="M216.21794,101.64122h1.77637l7.65625,16.92188h-2.04l-1.96777-4.44043h-9.14551l-1.99219,4.44043h-1.94336Zm4.68066,10.77734-3.81641-8.56836-3.84082,8.56836Z" fill="#231f20"/>
    <path d="M227.92888,101.76134h1.89648V118.5631h-1.89648Z" fill="#231f20"/>
    <path d="M233.54411,101.76134h1.77637l10.585,13.46582V101.76134h1.84766V118.5631h-1.51172l-10.84863-13.77734V118.5631h-1.84863Z" fill="#231f20"/>
    <path d="M251.47185,101.76134h1.89648V118.5631h-1.89648Z" fill="#231f20"/>
    <path d="M257.08806,101.76134h1.77637l10.585,13.46582V101.76134H271.297V118.5631h-1.51172l-10.84863-13.77734V118.5631h-1.84863Z" fill="#231f20"/>
    <path d="M274.10369,110.21056v-.04785a8.432,8.432,0,0,1,8.4248-8.68945,8.8533,8.8533,0,0,1,6.26465,2.23242l-1.22363,1.44043a7.15015,7.15015,0,0,0-5.11328-1.91992c-3.71973,0-6.38379,3.14355-6.38379,6.8877v.04883c0,4.00781,2.56836,6.98438,6.64844,6.98438a7.911,7.911,0,0,0,4.84863-1.68066v-4.17578h-5.11328v-1.7041h6.9375v6.69629a10.1814,10.1814,0,0,1-6.74512,2.56836C277.36833,118.85118,274.10369,115.01036,274.10369,110.21056Z" fill="#231f20"/>
    <path d="M179.66521,123.76134h6.28906c3.792,0,6.28809,2.0166,6.28809,5.3291v.04785c0,3.624-3.02441,5.49609-6.60059,5.49609h-4.08008v5.92871h-1.89648Zm6.04883,9.14551c2.78418,0,4.6084-1.48828,4.6084-3.69629v-.04883c0-2.39941-1.7998-3.64746-4.5127-3.64746h-4.248v7.39258Z" fill="#231f20"/>
    <path d="M199.03435,123.64122h1.77637L208.467,140.5631h-2.04l-1.96777-4.44043h-9.14551l-1.99219,4.44043H191.3781Zm4.68066,10.77734-3.81641-8.56836-3.84082,8.56836Z" fill="#231f20"/>
    <path d="M210.57732,123.76134h7.22461a6.62071,6.62071,0,0,1,4.77637,1.68066,4.63867,4.63867,0,0,1,1.29688,3.3125v.04785c0,2.78418-1.9209,4.416-4.56055,4.89648l5.16016,6.86426h-2.32812l-4.87207-6.52832H212.4738v6.52832h-1.89648Zm7.05664,8.56934c2.52051,0,4.32031-1.29687,4.32031-3.457v-.04785c0-2.06348-1.584-3.31152-4.2959-3.31152H212.4738v6.81641Z" fill="#231f20"/>
    <path d="M231.00115,125.51427h-5.66406v-1.75293h13.22559v1.75293h-5.665V140.5631h-1.89648Z" fill="#231f20"/>
    <path d="M240.81658,123.76134h1.77637l10.585,13.46582V123.76134h1.84766V140.5631h-1.51172l-10.84863-13.77734V140.5631h-1.84863Z" fill="#231f20"/>
    <path d="M258.57634,123.76134h12.14551v1.72852h-10.249v5.73633h9.16895v1.72852h-9.16895v5.87988H270.842v1.72852H258.57634Z" fill="#231f20"/>
    <path d="M273.45622,123.76134h7.22461a6.6207,6.6207,0,0,1,4.77637,1.68066,4.63867,4.63867,0,0,1,1.29688,3.3125v.04785c0,2.78418-1.9209,4.416-4.56055,4.89648l5.16016,6.86426h-2.32812l-4.87207-6.52832h-4.80078v6.52832h-1.89648Zm7.05664,8.56934c2.52051,0,4.32031-1.29687,4.32031-3.457v-.04785c0-2.06348-1.584-3.31152-4.2959-3.31152h-5.18457v6.81641Z" fill="#231f20"/>
  </g>
</svg>
